<?xml version="1.0" encoding="utf-8" standalone="no"?><!DOCTYPE svg PUBLIC "-//W3C//DTD SVG 20010904//EN" "http://www.w3.org/TR/2001/REC-SVG-20010904/DTD/svg10.dtd"><svg xmlns="http://www.w3.org/2000/svg" width="663" height="432" xmlns:xlink="http://www.w3.org/1999/xlink"><source><![CDATA[Pinger.Server->Pinger.Server: Wait for Client
Pinger.Client->Pinger.Server: Connect to Server

Pinger.Client->Pinger.Server: Test Message From Client
Pinger.Server->Pinger.Client: Test Message From Server
Pinger.Client->Pinger.Client: Wait configured interval
Pinger.Client->Pinger.Server: Test Message From Client
Pinger.Server->Pinger.Client: Test Message From Server
]]></source><desc></desc><defs><marker viewBox="0 0 5 5" markerWidth="5" markerHeight="5" orient="auto" refX="5" refY="2.5" id="markerArrowBlock"><path d="M 0 0 L 5 2.5 L 0 5 z"></path></marker><marker viewBox="0 0 9.6 16" markerWidth="4" markerHeight="16" orient="auto" refX="9.6" refY="8" id="markerArrowOpen"><path d="M 9.6,8 1.92,16 0,13.7 5.76,8 0,2.286 1.92,0 9.6,8 z"></path></marker></defs><g class="title"></g><g class="actor"><path d="M10,20C43.3,14.8 110.2,25.2 140.9,20.0C142.6,40.0 139.2,36.5 140.9,62.7C76.8,57.4 45.4,67.9 10.0,62.7C8.3,55.8 11.7,46.5 10.0,20.0" stroke="#000000" fill="#ffffff" style="stroke-width: 2;"></path><text x="20" y="43.33333396911621" style="font-size: 16px; font-family: danielbd;"><tspan x="20">Pinger.Server</tspan></text></g><g class="actor"><path d="M10,369.33334159851074C102.4,374.6 30.9,364.1 140.9,369.3C139.2,405.2 142.6,381.2 140.9,412.0C50.3,406.8 57.6,417.2 10.0,412.0C8.3,390.1 11.7,383.0 10.0,369.3" stroke="#000000" fill="#ffffff" style="stroke-width: 2;"></path><text x="20" y="392.66667556762695" style="font-size: 16px; font-family: danielbd;"><tspan x="20">Pinger.Server</tspan></text></g><path d="M75.5,62.7C87.7,171.6 63.2,111.7 75.5,369.3" stroke="#000000" fill="none" style="stroke-width: 2;"></path><g class="actor"><path d="M264.3164176940918,20C344.0,25.0 359.2,15.0 389.1,20.0C390.9,39.8 387.4,38.4 389.1,62.7C343.3,57.7 359.2,67.7 264.3,62.7C262.6,50.0 266.0,53.1 264.3,20.0" stroke="#000000" fill="#ffffff" style="stroke-width: 2;"></path><text x="274.3164176940918" y="44" style="font-size: 16px; font-family: danielbd;"><tspan x="274.3164176940918">Pinger.Client</tspan></text></g><g class="actor"><path d="M264.3164176940918,369.33334159851074C311.6,374.3 326.2,364.3 389.1,369.3C387.4,401.4 390.9,381.9 389.1,412.0C359.2,407.0 369.2,417.0 264.3,412.0C262.6,401.8 266.0,394.6 264.3,369.3" stroke="#000000" fill="#ffffff" style="stroke-width: 2;"></path><text x="274.3164176940918" y="393.33334159851074" style="font-size: 16px; font-family: danielbd;"><tspan x="274.3164176940918">Pinger.Client</tspan></text></g><path d="M326.7,62.7C339.0,320.3 314.5,111.7 326.7,369.3" stroke="#000000" fill="none" style="stroke-width: 2;"></path><g class="signal"><text x="100.45182418823242" y="96.33333492279053" style="font-size: 16px; font-family: danielbd;"><tspan x="100.45182418823242">Wait for Client</tspan></text><path d="M75.5,82.7C78.7,83.5 80.3,81.9 95.5,82.7" stroke="#000000" fill="none" style="stroke-width: 2;"></path><path d="M95.5,82.7C96.3,99.6 94.6,88.0 95.5,105.0" stroke="#000000" fill="none" style="stroke-width: 2;"></path><path d="M95.5,105.0C83.4,104.2 80.7,105.8 75.5,105.0" stroke="#000000" fill="none" style="stroke-width: 2; marker-end: url(&quot;#markerArrowBlock&quot;);"></path></g><g class="signal"><text x="120.50260543823242" y="129.66666889190674" style="font-size: 16px; font-family: danielbd;"><tspan x="120.50260543823242">Connect to Server</tspan></text><path d="M326.7,136.0C122.9,146.1 286.5,125.9 75.5,136.0" stroke="#000000" fill="none" style="stroke-width: 2; marker-end: url(&quot;#markerArrowBlock&quot;);"></path></g><g class="signal"><text x="88.48958969116211" y="163.66666793823242" style="font-size: 16px; font-family: danielbd;"><tspan x="88.48958969116211">Test Message From Client</tspan></text><path d="M326.7,178.7C115.7,168.6 217.0,188.7 75.5,178.7" stroke="#000000" fill="none" style="stroke-width: 2; marker-end: url(&quot;#markerArrowBlock&quot;);"></path></g><g class="signal"><text x="85.45182418823242" y="206.33333587646484" style="font-size: 16px; font-family: danielbd;"><tspan x="85.45182418823242">Test Message From Server</tspan></text><path d="M75.5,221.3C135.8,231.4 257.1,211.3 326.7,221.3" stroke="#000000" fill="none" style="stroke-width: 2; marker-end: url(&quot;#markerArrowBlock&quot;);"></path></g><g class="signal"><text x="351.7304801940918" y="257.6666717529297" style="font-size: 16px; font-family: danielbd;"><tspan x="351.7304801940918">Wait configured interval</tspan></text><path d="M326.7,241.3C333.9,240.5 343.1,242.1 346.7,241.3" stroke="#000000" fill="none" style="stroke-width: 2;"></path><path d="M346.7,241.3C345.6,248.0 347.8,262.4 346.7,269.0" stroke="#000000" fill="none" style="stroke-width: 2;"></path><path d="M346.7,269.0C331.5,269.8 329.9,268.2 326.7,269.0" stroke="#000000" fill="none" style="stroke-width: 2; marker-end: url(&quot;#markerArrowBlock&quot;);"></path></g><g class="signal"><text x="88.48958969116211" y="291.6666717529297" style="font-size: 16px; font-family: danielbd;"><tspan x="88.48958969116211">Test Message From Client</tspan></text><path d="M326.7,306.7C135.8,316.7 115.7,296.6 75.5,306.7" stroke="#000000" fill="none" style="stroke-width: 2; marker-end: url(&quot;#markerArrowBlock&quot;);"></path></g><g class="signal"><text x="85.45182418823242" y="334.3333396911621" style="font-size: 16px; font-family: danielbd;"><tspan x="85.45182418823242">Test Message From Server</tspan></text><path d="M75.5,349.3C193.9,339.3 229.9,359.4 326.7,349.3" stroke="#000000" fill="none" style="stroke-width: 2; marker-end: url(&quot;#markerArrowBlock&quot;);"></path></g></svg>